<svg width="324" height="72" viewBox="0 0 324 72" fill="none" xmlns="http://www.w3.org/2000/svg">
<path d="M18.1585 59.784C17.8969 59.784 17.461 59.784 17.1994 59.5599C16.2404 59.1118 15.7172 58.2902 15.7172 57.2446L19.1175 41.9337H2.46482C1.50576 41.9337 0.721081 41.4856 0.285146 40.664C-0.237976 40.0665 0.0235848 39.1702 0.546707 38.5727L23.0409 12.8803C23.7384 12.2828 24.7847 11.8346 25.7437 12.0587C26.7028 12.5068 27.4875 13.3284 27.4875 14.15V27.3696H45.5352C46.4942 27.3696 47.2789 27.8178 47.7149 28.6393C48.238 29.4609 47.9764 30.2824 47.4533 30.9546L20.0766 59.1865C19.6406 59.5599 18.856 59.784 18.1585 59.784ZM7.34729 37.8259H21.9947C22.6922 37.8259 23.4769 38.0499 23.9128 38.6474C24.4359 39.0956 24.6103 39.6931 24.4359 40.2906L22.2563 50.1493L40.304 31.4774H24.9591C23.4769 31.4774 22.5178 30.6559 22.5178 29.3862V20.4237L7.34729 37.8259Z" fill="white"/>
<path d="M84.112 53H89.872L77.92 19.592H71.584L59.632 53H65.344L67.744 46.184H81.712L84.112 53ZM80.176 41.72H69.28L74.752 26.216L80.176 41.72ZM105.965 19.64H95.0688V53H105.965C116.669 53 123.677 46.712 123.677 36.44C123.677 26.12 116.669 19.64 105.965 19.64ZM100.541 48.536V24.104H105.965C113.837 24.104 118.061 28.808 118.061 36.44C118.061 44.024 113.837 48.536 105.965 48.536H100.541ZM142.156 47.384L132.268 19.64H126.412L138.988 53H145.324L157.852 19.64H152.092L142.156 47.384ZM184.94 53H190.7L178.748 19.592H172.412L160.46 53H166.172L168.572 46.184H182.54L184.94 53ZM181.004 41.72H170.108L175.58 26.216L181.004 41.72ZM217.833 19.592V44.456L201.369 19.592H195.897V53H201.369V28.088L217.833 53H223.305V19.592H217.833ZM228.667 36.248C228.667 46.28 236.299 53.288 245.707 53.288C252.667 53.288 258.667 49.832 261.211 43.304H254.635C252.859 46.856 249.691 48.536 245.707 48.536C239.083 48.536 234.283 43.784 234.283 36.248C234.283 28.712 239.083 24.008 245.707 24.008C249.691 24.008 252.859 25.688 254.635 29.24H261.211C258.667 22.712 252.667 19.208 245.707 19.208C236.299 19.208 228.667 26.264 228.667 36.248ZM286.048 19.592H267.616V53H286.048V48.536H273.088V38.312H284.608V33.848H273.088V24.056H286.048V19.592ZM303.684 19.64H292.788V53H303.684C314.388 53 321.396 46.712 321.396 36.44C321.396 26.12 314.388 19.64 303.684 19.64ZM298.26 48.536V24.104H303.684C311.556 24.104 315.78 28.808 315.78 36.44C315.78 44.024 311.556 48.536 303.684 48.536H298.26Z" fill="white"/>
</svg>
